# xmcd
#
# Track frame offsets:
#	150
#	26108
#	42055
#	56177
#	75110
#	94063
#	109024
#	129652
#	145177
#	176825
#	195559
#	209026
#	232742
#	249186
#
# Disc length: 3506 seconds
#
# Revision: 0
# Processed by: cddbd v1.5.2PL0 Copyright (c) Steve Scherf et al.
# Submitted via: audiograbber 1.83.01
#
DISCID=b80db00e
DTITLE=Ofra Haza - Im Min aLu
DYEAR=2008
DGENRE=Folk-Rock
TTITLE0=Shaday
TTITLE1=gaLbi
TTITLE2=Im Min aLu (Version 2008)
TTITLE3=Fatamorgana
TTITLE4=EshaL
TTITLE5=Ya Hil  We
TTITLE6=AsaLk
TTITLE7=Ya Ba Ye
TTITLE8=Love Song (The BibLical song of songs)
TTITLE9=La Fa La
TTITLE10=Taw Shee
TTITLE11=Kaddish
TTITLE12=The Poem (New track)
TTITLE13=Im Min aLu (Unplugged mix)
EXTD=
EXTT0=
EXTT1=
EXTT2=
EXTT3=
EXTT4=
EXTT5=
EXTT6=
EXTT7=
EXTT8=
EXTT9=
EXTT10=
EXTT11=
EXTT12=
EXTT13=
PLAYORDER=
